<svg xmlns="http://www.w3.org/2000/svg" xmlns:xlink="http://www.w3.org/1999/xlink" viewBox="0 0 81 81" fill="#fff" fill-rule="evenodd" stroke="#000" stroke-linecap="round" stroke-linejoin="round"><use xlink:href="#A" x=".5" y=".5"/><symbol id="A" overflow="visible"><path d="M50.229 63.935c3.268 1.361 4.791 5.062 3.402 8.266s-5.164 4.697-8.431 3.335-4.791-5.062-3.402-8.266 5.164-4.696 8.432-3.335c-3.268-1.362-4.791-5.062-3.402-8.266s5.164-4.696 8.432-3.335 4.791 5.062 3.402 8.266-5.164 4.696-8.431 3.335zm-8.893-3.886c2.831 0 5.13-2.253 5.13-5.029 0-.784-.2-1.535-.533-2.188H57.89l10.459 17.796H11.625l10.492-17.796h14.622c-.333.653-.533 1.404-.533 2.188 0 2.775 2.298 5.029 5.129 5.029zm37.472 11.33L53.393 28.245V10.776h.466c3.031 0 5.496-2.416 5.496-5.388S56.89 0 53.859 0H26.147c-3.064 0-5.496 2.416-5.496 5.388s2.432 5.388 5.496 5.388h.433v17.469L1.199 71.38C-1.599 76.114.666 80 6.262 80h67.482c5.563 0 7.861-3.886 5.063-8.621z" fill="#0078d7" stroke="none"/></symbol></svg>