<svg xmlns="http://www.w3.org/2000/svg" xmlns:xlink="http://www.w3.org/1999/xlink" viewBox="0 0 85 85" fill="#fff" fill-rule="evenodd" stroke="#000" stroke-linecap="round" stroke-linejoin="round"><use xlink:href="#A" x="2.5" y="2.5"/><symbol id="A" overflow="visible"><g stroke="none"><path d="M0 0h80v80H0V0z" fill="#34bdb2"/><path d="M52.644 27.2c-4.224-2.451-7.973-4.378-12.878-4.293-2.806.049-5.216 1.574-5.722 4.366-.472 2.597 1.837 4.038 4.239 4.922 3.983 1.467 7.451 3.016 11.365 4.647 7.115 2.965 10.764 7.767 10.332 13.929-.549 7.84-5.267 13.462-12.765 15.316-9.798 2.423-19.313-1.267-27.352-6.419 2.029-3.091 4.383-5.201 6.4-8.273 4.644 1.977 8.293 4.648 13.152 5.065 3.426.294 7.308.13 8.078-3.894.694-3.629-2.464-5.574-5.545-6.661-3.667-1.293-7.328-2.876-10.924-4.344-6.648-2.715-9.353-8.026-8.897-14.283 0-3.668 3.044-11.083 10.506-13.389 11.466-3.544 17.784.085 26.098 5.428L52.644 27.2"/></g></symbol></svg>